<svg version="1.0" xmlns="http://www.w3.org/2000/svg"
 width="1636.000000pt" height="492.000000pt" viewBox="0 0 1636.000000 492.000000"
 preserveAspectRatio="xMidYMid meet">

<g transform="translate(0.000000,492.000000) scale(0.100000,-0.100000)"
fill="#000000" stroke="none">
<path d="M2345 4839 c-71 -5 -170 -17 -220 -27 -102 -21 -101 -21 80 -41 239
-27 496 -113 690 -231 350 -213 594 -507 719 -868 53 -153 76 -276 83 -448 7
-171 -5 -295 -42 -433 -26 -98 -82 -248 -94 -256 -6 -3 -828 722 -939 829
l-22 22 174 191 175 191 -25 23 -24 23 -73 -20 c-52 -14 -103 -19 -187 -18
-98 0 -126 4 -195 28 -99 34 -178 82 -255 153 -33 30 -63 52 -68 49 -13 -8
-937 -1025 -939 -1034 -2 -9 546 -506 563 -510 7 -2 83 76 170 172 l158 174
30 -25 c156 -131 934 -838 930 -845 -11 -18 -210 -111 -308 -143 -351 -117
-682 -110 -1044 21 -70 26 -140 53 -156 61 -15 8 -32 11 -35 6 -97 -112 -293
-333 -297 -333 -3 0 -72 55 -155 122 -128 104 -152 119 -163 107 -8 -8 -208
-252 -445 -543 l-431 -529 0 -78 0 -78 310 -253 c171 -139 314 -254 319 -256
4 -1 168 193 362 432 l354 434 35 -15 c579 -249 1253 -227 1805 61 147 76 316
192 432 295 l101 91 401 -360 402 -360 136 153 c76 83 190 211 255 283 65 72
118 135 117 140 0 5 -193 182 -429 394 -236 212 -429 390 -429 396 -1 6 17 58
39 117 165 438 184 898 54 1348 -149 519 -537 980 -1016 1209 -187 89 -429
158 -613 175 -139 12 -162 12 -290 4z"/>
<path d="M13800 2325 l0 -1235 160 0 159 0 10 38 c6 21 14 54 17 73 12 59 22
63 58 16 49 -64 120 -112 200 -136 89 -26 136 -26 221 0 155 47 243 206 274
491 14 126 14 700 0 847 -19 209 -67 341 -148 412 -56 50 -104 64 -216 64 -77
0 -98 -4 -147 -27 -64 -30 -139 -95 -175 -151 -13 -21 -28 -35 -33 -32 -6 4
-10 173 -10 441 l0 434 -185 0 -185 0 0 -1235z m605 291 c45 -19 70 -63 92
-156 16 -65 18 -128 18 -470 0 -347 -2 -404 -18 -471 -22 -90 -45 -132 -89
-159 -63 -38 -156 -16 -212 50 l-26 32 0 504 0 505 26 55 c25 53 66 94 114
113 35 14 56 13 95 -3z"/>
<path d="M11490 3370 l0 -160 150 0 150 0 0 -1060 0 -1060 190 0 190 0 0 1060
0 1060 200 0 200 0 0 160 0 160 -540 0 -540 0 0 -160z"/>
<path d="M5375 2883 c-152 -46 -291 -216 -331 -402 -18 -85 -18 -267 0 -352
36 -168 165 -329 307 -385 104 -41 221 -41 328 -1 41 15 78 33 83 40 8 12 12
317 4 317 -3 0 -22 -16 -43 -35 -44 -41 -113 -76 -163 -82 -57 -8 -142 30
-193 86 -51 58 -66 99 -74 206 -14 195 81 342 227 353 77 6 119 -10 191 -69
l59 -50 0 160 0 159 -35 21 c-86 51 -254 67 -360 34z"/>
<path d="M6250 2882 c-171 -57 -324 -238 -359 -427 -15 -81 -13 -227 4 -307
32 -152 151 -313 278 -377 119 -59 216 -73 322 -46 181 47 311 172 383 367 24
66 26 87 27 213 0 111 -4 151 -19 195 -56 166 -158 290 -293 357 -72 36 -83
38 -182 40 -81 2 -119 -1 -161 -15z m225 -256 c64 -30 107 -76 142 -151 24
-54 27 -71 27 -165 0 -84 -4 -116 -22 -160 -69 -175 -250 -234 -373 -123 -82
75 -116 178 -106 325 4 64 12 94 37 143 39 78 72 110 136 135 65 25 99 25 159
-4z"/>
<path d="M11229 2885 c-62 -20 -142 -93 -173 -158 -38 -80 -51 -191 -31 -268
30 -118 74 -159 244 -223 114 -44 146 -66 161 -112 27 -82 -27 -164 -108 -164
-61 0 -122 31 -182 92 l-58 60 -58 -115 -59 -116 25 -26 c85 -91 196 -140 320
-140 234 0 383 170 367 420 -12 185 -63 245 -271 320 -61 22 -110 47 -123 61
-31 34 -30 85 1 121 22 25 31 28 88 28 55 0 70 -5 123 -37 l59 -36 14 31 c34
79 63 170 58 182 -2 7 -39 30 -82 51 -71 35 -84 39 -173 41 -64 2 -111 -2
-142 -12z"/>
<path d="M15513 2890 c-228 -41 -343 -180 -389 -470 -33 -204 -28 -760 7 -934
28 -133 85 -252 149 -310 114 -103 325 -142 518 -96 92 22 126 37 194 86 92
68 148 196 151 348 l2 91 -75 6 c-41 4 -116 9 -166 11 l-90 4 -12 -88 c-22
-161 -58 -210 -156 -212 -67 -1 -101 21 -129 82 -19 42 -22 70 -25 245 l-4
197 336 0 336 0 0 194 c0 568 -75 766 -314 833 -64 17 -264 25 -333 13z m212
-280 c44 -41 56 -106 62 -327 l6 -203 -153 0 -152 0 4 218 c5 244 14 287 72
324 43 27 126 21 161 -12z"/>
<path d="M7160 2873 c0 -8 -19 -159 -59 -478 -12 -88 -28 -207 -36 -265 -20
-136 -45 -343 -45 -369 0 -20 5 -21 119 -21 l118 0 7 68 c4 37 13 114 21 172
8 58 21 171 30 252 8 81 19 157 23 168 8 22 8 22 112 -399 33 -135 64 -249 68
-253 5 -5 46 -8 92 -6 l84 3 17 75 c34 146 59 246 90 365 17 66 38 149 46 184
17 70 32 67 33 -9 0 -59 53 -541 66 -597 4 -22 8 -23 126 -23 l121 0 -7 43
c-3 23 -17 125 -31 227 -13 102 -36 275 -50 385 -15 110 -34 263 -43 340 l-17
140 -131 3 -132 3 -20 -78 c-11 -43 -51 -201 -88 -350 -37 -150 -69 -271 -71
-269 -5 4 -28 88 -68 251 -20 77 -40 158 -46 180 -6 22 -19 78 -30 125 -11 47
-24 97 -30 113 l-11 27 -129 0 c-71 0 -129 -3 -129 -7z"/>
<path d="M8342 2443 l3 -438 30 -70 c66 -159 218 -236 435 -222 200 13 306 89
362 259 20 59 21 91 25 486 l5 422 -130 0 -130 0 -4 -382 c-4 -375 -4 -384
-27 -435 -30 -69 -86 -99 -164 -89 -62 7 -95 29 -122 82 -19 37 -20 62 -23
432 l-3 392 -130 0 -130 0 3 -437z"/>
<path d="M9400 2326 c0 -305 3 -561 6 -570 5 -13 26 -16 131 -16 l125 0 -4
370 c-2 204 -2 370 0 370 1 0 17 -33 36 -72 28 -61 326 -553 388 -640 19 -28
19 -28 144 -28 l124 0 0 570 0 570 -126 0 -125 0 3 -370 c2 -204 2 -370 1
-370 -2 0 -21 37 -44 83 -23 45 -56 105 -74 132 -18 28 -99 157 -180 288
l-147 237 -129 0 -129 0 0 -554z"/>
<path d="M10560 2326 c0 -305 3 -561 6 -570 5 -13 27 -16 135 -16 l129 0 -2
568 -3 567 -132 3 -133 3 0 -555z"/>
<path d="M12467 2863 c-11 -10 -8 -1306 3 -1430 17 -186 66 -282 175 -338 54
-28 67 -30 159 -30 81 1 112 5 158 24 67 26 157 104 194 167 14 24 31 44 38
44 8 0 17 -31 25 -87 7 -49 15 -96 17 -105 5 -16 21 -18 155 -18 l149 0 0 890
0 890 -195 0 -195 0 0 -715 0 -714 -32 -37 c-61 -69 -152 -93 -203 -52 -62 48
-60 24 -63 806 l-3 712 -188 0 c-103 0 -191 -3 -194 -7z"/>
</g>
</svg>

//-----------------------------------------------------------------------------------------------------------//

// Logo original AluraTube

<svg className="logo" viewBox="0 0 454 87" fill="none" xmlns="http://www.w3.org/2000/svg">
      <path d="M120.721 14.1896C119.307 8.94024 115.168 4.80134 109.919 3.38805C100.329 0.763382 61.9683 0.763382 61.9683 0.763382C61.9683 0.763382 23.6077 0.763382 14.0176 3.2871C8.86917 4.70039 4.62931 8.94024 3.21603 14.1896C0.692307 23.7797 0.692307 43.6667 0.692307 43.6667C0.692307 43.6667 0.692307 63.6546 3.21603 73.1438C4.62931 78.3931 8.76822 82.532 14.0176 83.9453C23.7087 86.57 61.9683 86.57 61.9683 86.57C61.9683 86.57 100.329 86.57 109.919 84.0462C115.168 82.633 119.307 78.4941 120.721 73.2447C123.244 63.6546 123.244 43.7676 123.244 43.7676C123.244 43.7676 123.345 23.7797 120.721 14.1896V14.1896Z" fill="#FF0000" />
      <path d="M49.7535 25.294V62.0394L81.6533 43.6667L49.7535 25.294Z" fill="white" />
      <path className="text" d="M433.558 63.2285C433.558 66.6608 433.659 69.2855 433.861 71.0016C434.063 72.7177 434.466 74.0301 435.173 74.7367C435.779 75.5443 436.788 75.9481 438.202 75.9481C440.019 75.9481 441.23 75.2415 441.937 73.8282C442.643 72.4149 442.946 70.0931 443.047 66.7618L453.445 67.3675C453.546 67.8722 453.546 68.4779 453.546 69.2855C453.546 74.232 452.233 77.9671 449.508 80.3899C446.782 82.8126 442.946 84.024 438 84.024C432.044 84.024 427.905 82.106 425.482 78.3709C423.059 74.6358 421.848 68.8817 421.848 61.0077V51.6194C421.848 43.5435 423.059 37.6885 425.583 33.9534C428.107 30.2183 432.347 28.4012 438.302 28.4012C442.441 28.4012 445.672 29.2088 447.893 30.723C450.114 32.2372 451.628 34.66 452.536 37.7894C453.445 41.0198 453.849 45.4615 453.849 51.1147V60.301H433.558V63.2285ZM435.072 37.8904C434.466 38.698 434.063 39.9093 433.861 41.6255C433.659 43.3416 433.558 45.9663 433.558 49.4995V53.3356H442.441V49.4995C442.441 46.0672 442.34 43.4426 442.139 41.6255C441.937 39.8084 441.432 38.597 440.826 37.8904C440.221 37.1837 439.211 36.7799 438 36.7799C436.586 36.679 435.678 37.0828 435.072 37.8904Z" fill="#282828" />
      <path className="text" d="M375.209 29.6126V83.4183H365.72L364.711 76.8567H364.408C361.884 81.8031 357.947 84.3269 352.799 84.3269C349.266 84.3269 346.641 83.1155 344.925 80.7937C343.209 78.4718 342.401 74.8377 342.401 69.7902V29.6126H354.515V69.0836C354.515 71.5064 354.818 73.2225 355.322 74.232C355.827 75.2415 356.736 75.7462 357.947 75.7462C358.957 75.7462 359.966 75.4434 360.976 74.7367C361.985 74.131 362.692 73.3234 363.096 72.3139V29.6126H375.209Z" fill="#282828" />
      <path className="text" d="M346.035 19.5177H334.022V83.3174H322.211V19.5177H310.198V9.72562H346.035V19.5177Z" fill="#282828" />
      <path className="text" d="M415.286 38.1932C414.579 34.761 413.368 32.3382 411.753 30.8239C410.138 29.3097 407.816 28.5021 404.989 28.5021C402.768 28.5021 400.648 29.1078 398.73 30.4202C396.812 31.6315 395.298 33.3477 394.289 35.3666H394.188V7H382.478V83.3174H392.472L393.683 78.2699H393.986C394.894 80.087 396.308 81.5003 398.226 82.6107C400.144 83.6202 402.163 84.2259 404.485 84.2259C408.623 84.2259 411.551 82.3079 413.469 78.5728C415.387 74.8377 416.397 68.8817 416.397 60.9067V52.427C416.296 46.2691 415.993 41.5245 415.286 38.1932ZM404.182 60.0991C404.182 64.0361 403.98 67.0646 403.677 69.2855C403.374 71.5064 402.768 73.1215 402.062 74.0301C401.254 74.9386 400.245 75.4434 399.033 75.4434C398.024 75.4434 397.115 75.2415 396.308 74.7367C395.5 74.232 394.793 73.5253 394.289 72.6168V42.1302C394.693 40.7169 395.399 39.5056 396.409 38.4961C397.418 37.5875 398.529 37.0828 399.639 37.0828C400.85 37.0828 401.86 37.5875 402.466 38.4961C403.172 39.5056 403.576 41.1207 403.879 43.3416C404.182 45.6634 404.283 48.8938 404.283 53.0327V60.0991H404.182Z" fill="#282828" />
      <path className="text" fillRule="evenodd" clipRule="evenodd" d="M169.493 55.1486C169.442 55.4719 169.318 55.7796 169.13 56.0486C168.941 56.3176 168.694 56.541 168.406 56.702C167.826 57.0724 167.318 57.2577 166.805 57.4429C165.711 57.8163 164.56 58.1897 163.342 58.6229C162.058 59.056 160.907 59.4892 159.88 59.8028C158.599 60.236 157.381 60.6094 156.224 61.0426C155.353 61.4109 154.536 61.891 153.792 62.4705C153.1 63.0902 152.497 63.7996 151.997 64.5795C151.484 65.4459 151.16 66.5631 151.16 67.8656C151.16 70.4735 151.801 72.4571 153.085 73.6968C154.366 75.0022 156.741 75.6206 160.26 75.6206C163.85 75.6206 166.285 74.9395 167.572 73.5743C168.85 72.2091 169.49 70.2883 169.49 67.8088V55.1486H169.493ZM160.263 27.6654C166.548 27.6654 171.161 28.8454 174.107 31.2651C177.056 33.6251 178.53 36.6602 178.53 40.2569V70.9067C178.53 72.1464 178.276 73.5116 177.829 74.9993C177.376 76.4929 176.482 77.8551 175.071 79.0919C173.726 80.3376 171.868 81.3921 169.496 82.1987C167.125 83.0052 164.049 83.4384 160.267 83.4384C156.49 83.4384 153.408 83.0052 151.04 82.1987C148.671 81.3921 146.81 80.3376 145.465 79.0919C144.215 77.9774 143.267 76.5701 142.71 74.9993C142.257 73.5146 142 72.1494 142 70.9096V66.0105C142 63.4025 142.704 60.9828 144.115 58.8708C145.526 56.702 147.511 55.2143 150.076 54.2823C151.357 53.8491 152.831 53.416 154.496 52.8574C156.164 52.2957 157.698 51.7371 159.239 51.2442C160.78 50.7453 162.125 50.2465 163.276 49.8103C163.97 49.5355 164.676 49.2883 165.391 49.0695L166.545 48.5108C166.998 48.2629 167.442 47.8895 167.892 47.3936C168.339 46.9007 168.723 46.342 169.046 45.7207C169.388 45.0478 169.564 44.3047 169.56 43.5519V41.5653C169.565 40.8373 169.41 40.1168 169.107 39.4533C168.853 38.7065 168.339 38.0254 167.635 37.407C166.931 36.7857 165.968 36.2898 164.817 35.9134C163.662 35.5459 162.128 35.3577 160.393 35.3577C156.804 35.3577 154.432 36.0448 153.151 37.4668C152.064 38.7095 151.423 40.2599 151.296 41.9955C151.296 42.3689 150.976 42.6169 150.589 42.6169L142.773 42.7423C142.588 42.7431 142.409 42.6714 142.277 42.5427C142.144 42.414 142.069 42.2388 142.066 42.0553V40.2629C142.066 38.5213 142.39 36.9081 143.094 35.3577C143.801 33.8043 144.891 32.5049 146.363 31.3846C147.837 30.2704 149.762 29.3413 152.067 28.7199C154.312 27.9731 157.067 27.6654 160.27 27.6654H160.263ZM301.96 55.1486C301.909 55.4719 301.785 55.7796 301.597 56.0486C301.408 56.3176 301.161 56.541 300.873 56.702C300.299 57.0724 299.785 57.2577 299.271 57.4429C298.184 57.8163 297.027 58.1897 295.809 58.6229C294.525 59.056 293.371 59.4892 292.347 59.8028C291.063 60.236 289.845 60.6094 288.691 61.0426C287.819 61.4107 287.001 61.8908 286.256 62.4705C285.565 63.0904 284.963 63.7998 284.464 64.5795C283.951 65.4459 283.63 66.5631 283.63 67.8656C283.63 70.4735 284.265 72.4571 285.549 73.6968C286.83 75.0022 289.205 75.6206 292.727 75.6206C296.323 75.6206 298.755 74.9395 300.039 73.5743C301.317 72.2091 301.957 70.2883 301.957 67.8088V55.1486H301.96ZM292.733 27.6654C299.018 27.6654 303.631 28.8454 306.58 31.2651C309.526 33.6251 311 36.6602 311 40.2569V70.9067C311 72.1464 310.746 73.5116 310.296 74.9993C309.849 76.4929 308.952 77.8551 307.541 79.0919C306.196 80.3376 304.338 81.3921 301.966 82.1987C299.598 83.0052 296.519 83.4384 292.74 83.4384C288.963 83.4384 285.881 83.0052 283.513 82.1987C281.144 81.3921 279.283 80.3376 277.938 79.0919C276.69 77.9768 275.744 76.5696 275.189 74.9993C274.736 73.5116 274.479 72.1464 274.479 70.9067V66.0075C274.479 63.3995 275.186 60.9798 276.594 58.8678C278.005 56.699 279.993 55.2114 282.555 54.2793C283.836 53.8462 285.31 53.413 286.978 52.8544C288.64 52.2928 290.181 51.7341 291.721 51.2412C293.262 50.7423 294.604 50.2435 295.758 49.8073C296.452 49.5325 297.158 49.2854 297.873 49.0665L299.027 48.5078C299.474 48.2599 299.924 47.8865 300.371 47.3906C300.83 46.8865 301.218 46.3238 301.525 45.7177C301.867 45.0449 302.043 44.3017 302.039 43.5489V41.5624C302.044 40.8343 301.889 40.1138 301.586 39.4503C301.332 38.7035 300.821 38.0224 300.114 37.404C299.41 36.7827 298.453 36.2868 297.296 35.9104C296.141 35.5429 294.607 35.3547 292.872 35.3547C289.283 35.3547 286.915 36.0418 285.631 37.4638C284.543 38.7065 283.902 40.2569 283.772 41.9925C283.772 42.3659 283.455 42.6139 283.072 42.6139H275.298C275.114 42.6132 274.938 42.5415 274.807 42.4143C274.676 42.2871 274.601 42.1143 274.597 41.9328V40.1314C274.597 38.3988 274.917 36.7857 275.624 35.2323C276.328 33.6848 277.416 32.3794 278.887 31.2651C280.367 30.1479 282.286 29.2158 284.597 28.5975C286.773 27.9701 289.528 27.6624 292.733 27.6624V27.6654ZM265.24 27.9134H270.37C270.817 27.9134 271.138 28.3495 271.011 28.7797L269.279 35.2323C269.219 35.5459 268.896 35.7311 268.639 35.7311H265.05C263.128 35.7311 261.59 35.9791 260.373 36.478C259.216 36.9709 258.258 37.5295 257.614 38.2106C256.974 38.8977 256.587 39.5758 256.397 40.2599C256.224 40.9286 256.138 41.6161 256.14 42.3062V82.1987C256.136 82.3817 256.059 82.5558 255.926 82.6833C255.794 82.8108 255.615 82.8814 255.43 82.8798H247.744C247.56 82.8798 247.383 82.8085 247.251 82.6812C247.12 82.5539 247.044 82.3807 247.04 82.1987V40.5049C247.04 39.764 247.167 38.6468 247.487 37.2188C247.744 35.7939 248.514 34.4287 249.732 33.0007C250.95 31.6355 252.744 30.3958 255.179 29.404C257.617 28.4063 260.95 27.9104 265.24 27.9104V27.9134ZM239.348 69.5415V71.4025C239.348 72.2091 239.227 73.3264 238.904 74.7543C238.647 76.1165 237.877 77.5444 236.659 78.9066C235.441 80.2748 233.647 81.5146 231.212 82.5063C228.777 83.5011 225.441 84 221.151 84C216.861 84 213.525 83.5011 211.09 82.5063C208.655 81.5146 206.86 80.3376 205.643 78.9096C204.425 77.5474 203.655 76.1195 203.398 74.6975C203.144 73.2636 202.954 72.2121 202.954 71.4055V29.652C202.954 29.2786 203.274 28.9649 203.658 28.9649H211.283C211.67 28.9649 211.99 29.2786 211.99 29.652V68.7349C211.99 70.0373 212.181 70.9694 212.374 71.7132C212.57 72.46 212.954 73.2009 213.531 73.8223C214.105 74.5034 215.006 75.062 216.22 75.4951C217.374 75.9313 218.979 76.1822 220.964 76.1822C223.018 76.1822 224.68 75.9313 225.9 75.4951C227.118 75.062 228.015 74.5034 228.656 73.882C229.29 73.2636 229.743 72.5825 229.934 71.8357C230.127 71.0889 230.387 70.4735 230.387 68.6692V29.5922C230.387 29.2218 230.704 28.9111 231.088 28.9111H238.713C239.094 28.9111 239.414 29.2218 239.414 29.5982V69.5474H239.354L239.348 69.5415ZM186.866 8.00299H194.494C194.878 8.00299 195.198 8.31068 195.198 8.68111V82.5691C195.196 82.7521 195.121 82.9269 194.989 83.0555C194.857 83.1841 194.679 83.2562 194.494 83.2562H186.866C186.681 83.2562 186.503 83.1841 186.371 83.0555C186.239 82.9269 186.164 82.7521 186.162 82.5691V8.68111C186.222 8.31068 186.482 8 186.866 8V8.00299Z" fill="#282828" />
    </svg>